<mxfile host="app.diagrams.net" agent="Mozilla/5.0 (Windows NT 10.0; Win64; x64) AppleWebKit/537.36 (KHTML, like Gecko) Chrome/128.0.0.0 Safari/537.36" version="24.7.14">
  <diagram name="Страница-1" id="L6yH5seb03IovRJoF4ed">
    <mxGraphModel dx="1050" dy="603" grid="1" gridSize="10" guides="1" tooltips="1" connect="1" arrows="1" fold="1" page="1" pageScale="1" pageWidth="827" pageHeight="1169" math="0" shadow="0">
      <root>
        <mxCell id="0" />
        <mxCell id="1" parent="0" />
        <mxCell id="XkKaWtpKqvxcAA5gz5M5-16" style="edgeStyle=orthogonalEdgeStyle;rounded=0;orthogonalLoop=1;jettySize=auto;html=1;" parent="1" source="XkKaWtpKqvxcAA5gz5M5-15" edge="1">
          <mxGeometry relative="1" as="geometry">
            <mxPoint x="413.9999999999998" y="150" as="targetPoint" />
          </mxGeometry>
        </mxCell>
        <mxCell id="XkKaWtpKqvxcAA5gz5M5-15" value="Start" style="rounded=1;whiteSpace=wrap;html=1;" parent="1" vertex="1">
          <mxGeometry x="354" y="30" width="120" height="60" as="geometry" />
        </mxCell>
        <mxCell id="XkKaWtpKqvxcAA5gz5M5-18" style="edgeStyle=orthogonalEdgeStyle;rounded=0;orthogonalLoop=1;jettySize=auto;html=1;" parent="1" source="XkKaWtpKqvxcAA5gz5M5-17" edge="1">
          <mxGeometry relative="1" as="geometry">
            <mxPoint x="413.9999999999998" y="270" as="targetPoint" />
          </mxGeometry>
        </mxCell>
        <mxCell id="XkKaWtpKqvxcAA5gz5M5-17" value="predefined password == &#39;bannana&#39;&lt;div&gt;attemps =&amp;nbsp; 3&lt;/div&gt;" style="rounded=0;whiteSpace=wrap;html=1;" parent="1" vertex="1">
          <mxGeometry x="304" y="150" width="220" height="70" as="geometry" />
        </mxCell>
        <mxCell id="XkKaWtpKqvxcAA5gz5M5-21" style="edgeStyle=orthogonalEdgeStyle;rounded=0;orthogonalLoop=1;jettySize=auto;html=1;entryX=0;entryY=0.5;entryDx=0;entryDy=0;" parent="1" source="XkKaWtpKqvxcAA5gz5M5-19" target="XkKaWtpKqvxcAA5gz5M5-20" edge="1">
          <mxGeometry relative="1" as="geometry" />
        </mxCell>
        <mxCell id="XkKaWtpKqvxcAA5gz5M5-19" value="Display attemps&amp;nbsp;" style="shape=parallelogram;perimeter=parallelogramPerimeter;whiteSpace=wrap;html=1;fixedSize=1;" parent="1" vertex="1">
          <mxGeometry x="354" y="270" width="120" height="60" as="geometry" />
        </mxCell>
        <mxCell id="XkKaWtpKqvxcAA5gz5M5-22" style="edgeStyle=orthogonalEdgeStyle;rounded=0;orthogonalLoop=1;jettySize=auto;html=1;" parent="1" source="XkKaWtpKqvxcAA5gz5M5-20" edge="1">
          <mxGeometry relative="1" as="geometry">
            <mxPoint x="413.9999999999998" y="559.9999999999998" as="targetPoint" />
          </mxGeometry>
        </mxCell>
        <mxCell id="XkKaWtpKqvxcAA5gz5M5-20" value="while atemps&amp;nbsp; &amp;gt; 0" style="rhombus;whiteSpace=wrap;html=1;direction=south;" parent="1" vertex="1">
          <mxGeometry x="356" y="370" width="116" height="120" as="geometry" />
        </mxCell>
        <mxCell id="XkKaWtpKqvxcAA5gz5M5-24" style="edgeStyle=orthogonalEdgeStyle;rounded=0;orthogonalLoop=1;jettySize=auto;html=1;" parent="1" source="XkKaWtpKqvxcAA5gz5M5-23" edge="1">
          <mxGeometry relative="1" as="geometry">
            <mxPoint x="270" y="659.9999999999998" as="targetPoint" />
          </mxGeometry>
        </mxCell>
        <mxCell id="XkKaWtpKqvxcAA5gz5M5-25" style="edgeStyle=orthogonalEdgeStyle;rounded=0;orthogonalLoop=1;jettySize=auto;html=1;" parent="1" source="XkKaWtpKqvxcAA5gz5M5-23" edge="1">
          <mxGeometry relative="1" as="geometry">
            <mxPoint x="550" y="660" as="targetPoint" />
          </mxGeometry>
        </mxCell>
        <mxCell id="XkKaWtpKqvxcAA5gz5M5-23" value="Enter a password" style="shape=parallelogram;perimeter=parallelogramPerimeter;whiteSpace=wrap;html=1;fixedSize=1;" parent="1" vertex="1">
          <mxGeometry x="354" y="560" width="120" height="60" as="geometry" />
        </mxCell>
        <mxCell id="XkKaWtpKqvxcAA5gz5M5-26" value="password correct" style="text;html=1;align=center;verticalAlign=middle;whiteSpace=wrap;rounded=0;" parent="1" vertex="1">
          <mxGeometry x="210" y="600" width="60" height="30" as="geometry" />
        </mxCell>
        <mxCell id="XkKaWtpKqvxcAA5gz5M5-28" style="edgeStyle=orthogonalEdgeStyle;rounded=0;orthogonalLoop=1;jettySize=auto;html=1;entryX=0.5;entryY=0;entryDx=0;entryDy=0;" parent="1" source="XkKaWtpKqvxcAA5gz5M5-27" edge="1" target="XkKaWtpKqvxcAA5gz5M5-29">
          <mxGeometry relative="1" as="geometry">
            <mxPoint x="270" y="789.9999999999998" as="targetPoint" />
          </mxGeometry>
        </mxCell>
        <mxCell id="XkKaWtpKqvxcAA5gz5M5-27" value="Output correct password" style="shape=parallelogram;perimeter=parallelogramPerimeter;whiteSpace=wrap;html=1;fixedSize=1;" parent="1" vertex="1">
          <mxGeometry x="210" y="660" width="120" height="60" as="geometry" />
        </mxCell>
        <mxCell id="XkKaWtpKqvxcAA5gz5M5-29" value="end" style="rounded=1;whiteSpace=wrap;html=1;" parent="1" vertex="1">
          <mxGeometry x="210" y="820" width="120" height="60" as="geometry" />
        </mxCell>
        <mxCell id="XkKaWtpKqvxcAA5gz5M5-31" value="Incorrect password" style="text;html=1;align=center;verticalAlign=middle;whiteSpace=wrap;rounded=0;" parent="1" vertex="1">
          <mxGeometry x="560" y="610" width="60" height="30" as="geometry" />
        </mxCell>
        <mxCell id="XkKaWtpKqvxcAA5gz5M5-33" style="edgeStyle=orthogonalEdgeStyle;rounded=0;orthogonalLoop=1;jettySize=auto;html=1;" parent="1" source="XkKaWtpKqvxcAA5gz5M5-32" edge="1">
          <mxGeometry relative="1" as="geometry">
            <mxPoint x="550" y="779.9999999999998" as="targetPoint" />
          </mxGeometry>
        </mxCell>
        <mxCell id="XkKaWtpKqvxcAA5gz5M5-41" style="edgeStyle=orthogonalEdgeStyle;rounded=0;orthogonalLoop=1;jettySize=auto;html=1;entryX=0.5;entryY=0;entryDx=0;entryDy=0;" parent="1" source="XkKaWtpKqvxcAA5gz5M5-32" target="XkKaWtpKqvxcAA5gz5M5-39" edge="1">
          <mxGeometry relative="1" as="geometry">
            <Array as="points">
              <mxPoint x="430" y="690" />
              <mxPoint x="430" y="810" />
            </Array>
          </mxGeometry>
        </mxCell>
        <mxCell id="XkKaWtpKqvxcAA5gz5M5-32" value="Attemps = attemps - 1" style="rounded=0;whiteSpace=wrap;html=1;" parent="1" vertex="1">
          <mxGeometry x="490" y="660" width="120" height="60" as="geometry" />
        </mxCell>
        <mxCell id="lByc7jojWd_T2SfpwSUF-1" style="edgeStyle=orthogonalEdgeStyle;rounded=0;orthogonalLoop=1;jettySize=auto;html=1;entryX=0;entryY=0.5;entryDx=0;entryDy=0;" edge="1" parent="1" source="XkKaWtpKqvxcAA5gz5M5-35" target="XkKaWtpKqvxcAA5gz5M5-20">
          <mxGeometry relative="1" as="geometry">
            <Array as="points">
              <mxPoint x="770" y="940" />
              <mxPoint x="770" y="370" />
            </Array>
          </mxGeometry>
        </mxCell>
        <mxCell id="XkKaWtpKqvxcAA5gz5M5-35" value="Incorrect password" style="shape=parallelogram;perimeter=parallelogramPerimeter;whiteSpace=wrap;html=1;fixedSize=1;" parent="1" vertex="1">
          <mxGeometry x="490" y="910" width="120" height="60" as="geometry" />
        </mxCell>
        <mxCell id="XkKaWtpKqvxcAA5gz5M5-48" style="edgeStyle=orthogonalEdgeStyle;rounded=0;orthogonalLoop=1;jettySize=auto;html=1;" parent="1" source="XkKaWtpKqvxcAA5gz5M5-39" target="XkKaWtpKqvxcAA5gz5M5-29" edge="1">
          <mxGeometry relative="1" as="geometry" />
        </mxCell>
        <mxCell id="XkKaWtpKqvxcAA5gz5M5-39" value="Attemps = 0" style="rhombus;whiteSpace=wrap;html=1;" parent="1" vertex="1">
          <mxGeometry x="394" y="810" width="80" height="80" as="geometry" />
        </mxCell>
        <mxCell id="XkKaWtpKqvxcAA5gz5M5-53" style="edgeStyle=orthogonalEdgeStyle;rounded=0;orthogonalLoop=1;jettySize=auto;html=1;entryX=0.5;entryY=0;entryDx=0;entryDy=0;" parent="1" source="XkKaWtpKqvxcAA5gz5M5-49" target="XkKaWtpKqvxcAA5gz5M5-35" edge="1">
          <mxGeometry relative="1" as="geometry" />
        </mxCell>
        <mxCell id="XkKaWtpKqvxcAA5gz5M5-49" value="Attemps left" style="shape=parallelogram;perimeter=parallelogramPerimeter;whiteSpace=wrap;html=1;fixedSize=1;" parent="1" vertex="1">
          <mxGeometry x="490" y="780" width="120" height="60" as="geometry" />
        </mxCell>
      </root>
    </mxGraphModel>
  </diagram>
</mxfile>
